<svg width="26" height="28" viewBox="0 0 26 28" fill="none" xmlns="http://www.w3.org/2000/svg">
<path d="M12.9276 27.877C19.3738 27.877 24.5994 23.1463 24.5994 17.3108C24.5994 11.4753 19.3738 6.74463 12.9276 6.74463C6.48148 6.74463 1.25586 11.4753 1.25586 17.3108C1.25586 23.1463 6.48148 27.877 12.9276 27.877Z" fill="#EF7D70"/>
<path d="M10.2185 6.4662C9.37301 4.00177 5.79192 -0.668317 3.60701 0.080281C1.42348 0.830263 1.46361 6.71527 2.30907 9.17969L10.2171 6.4662H10.2185Z" fill="#8C8CEE"/>
<path d="M3.2873 7.40709C3.14339 6.47307 3.0742 5.2969 3.17383 4.09998C3.24578 3.24345 3.398 2.5156 3.61524 1.99394C3.80758 1.53316 3.99162 1.38371 4.04558 1.36434C4.06219 1.35881 4.0857 1.35742 4.1023 1.35742C4.43717 1.35742 5.35319 1.76009 6.6622 3.26559C7.36791 4.07784 7.94494 4.9316 8.35452 5.66636L3.28592 7.40571L3.2873 7.40709Z" fill="#EF7D70"/>
<path d="M15.6465 6.4662C16.4919 4.00177 20.073 -0.668317 22.258 0.080281C24.4429 0.828879 24.4013 6.71527 23.5559 9.17969L15.6479 6.4662H15.6465Z" fill="#8C8CEE"/>
<path d="M22.577 7.40709C22.7209 6.47307 22.7901 5.2969 22.6905 4.09998C22.6185 3.24345 22.4663 2.5156 22.249 1.99394C22.0567 1.53316 21.8727 1.38371 21.8187 1.36434C21.8021 1.35881 21.7786 1.35742 21.762 1.35742C21.4271 1.35742 20.5111 1.76009 19.2021 3.26559C18.4964 4.07784 17.9193 4.9316 17.5098 5.66636L22.5784 7.40571L22.577 7.40709Z" fill="#EF7D70"/>
<path d="M12.9288 26.1969C20.068 26.1969 25.8556 20.9576 25.8556 14.4947C25.8556 8.03174 20.068 2.79248 12.9288 2.79248C5.78947 2.79248 0.00195312 8.03174 0.00195312 14.4947C0.00195312 20.9576 5.78947 26.1969 12.9288 26.1969Z" fill="#8C8CEE"/>
<path d="M25.8536 14.4948C25.8536 20.9582 20.0668 26.197 12.9268 26.197C5.78675 26.197 0 20.9582 0 14.4948C0 14.1904 0.0124394 13.8887 0.0373465 13.5898C0.547943 19.6298 6.12299 24.3871 12.9254 24.3871C19.7278 24.3871 25.3043 19.6298 25.8135 13.5898C25.8384 13.8887 25.8508 14.1904 25.8508 14.4948H25.8536Z" fill="#7C7CC9"/>
<path d="M6.64707 15.3098C8.3528 15.3098 9.73557 13.927 9.73557 12.2213C9.73557 10.5156 8.3528 9.13281 6.64707 9.13281C4.94135 9.13281 3.55859 10.5156 3.55859 12.2213C3.55859 13.927 4.94135 15.3098 6.64707 15.3098Z" fill="#EF7D70"/>
<path d="M6.64652 14.5611C5.35688 14.5611 4.30664 13.5109 4.30664 12.2212C4.30664 10.9316 5.35688 9.88135 6.64652 9.88135C7.93615 9.88135 8.98641 10.9316 8.98641 12.2212C8.98641 13.5109 7.93615 14.5611 6.64652 14.5611Z" fill="#FEFFF8"/>
<path d="M16.6334 16.9775C16.6334 18.0015 15.8031 18.8304 14.7806 18.8304C13.758 18.8304 12.9277 18.0001 12.9277 16.9775" stroke="black" stroke-width="0.543806" stroke-linecap="round" stroke-linejoin="round"/>
<path d="M12.9283 16.9775C12.9283 18.0015 12.098 18.8304 11.0755 18.8304C10.0529 18.8304 9.22266 18.0001 9.22266 16.9775" stroke="black" stroke-width="0.543806" stroke-linecap="round" stroke-linejoin="round"/>
<path d="M12.9277 16.9768V15.8726" stroke="black" stroke-width="0.543806" stroke-linecap="round" stroke-linejoin="round"/>
<path d="M14.1265 15.3101C14.4863 15.3101 14.6869 15.7252 14.4641 16.0075C14.139 16.4212 13.573 16.7823 12.9282 16.7823C12.2834 16.7823 11.7174 16.4212 11.3923 16.0075C11.1695 15.7238 11.3701 15.3101 11.7299 15.3101H14.1279H14.1265Z" fill="black"/>
<path d="M19.9238 16.2578L23.4897 18.7125" stroke="black" stroke-width="0.462166" stroke-miterlimit="10" stroke-linecap="round"/>
<path d="M19.166 17.3574L22.3306 19.5354" stroke="black" stroke-width="0.462166" stroke-miterlimit="10" stroke-linecap="round"/>
<path d="M18.3867 18.4912L21.1985 20.427" stroke="black" stroke-width="0.462166" stroke-miterlimit="10" stroke-linecap="round"/>
<path d="M19.2076 15.3098C20.9133 15.3098 22.2961 13.927 22.2961 12.2213C22.2961 10.5156 20.9133 9.13281 19.2076 9.13281C17.5019 9.13281 16.1191 10.5156 16.1191 12.2213C16.1191 13.927 17.5019 15.3098 19.2076 15.3098Z" fill="#EF7D70"/>
<path d="M19.2071 14.5611C17.9174 14.5611 16.8672 13.5109 16.8672 12.2212C16.8672 10.9316 17.9174 9.88135 19.2071 9.88135C20.4967 9.88135 21.547 10.9316 21.547 12.2212C21.547 13.5109 20.4967 14.5611 19.2071 14.5611Z" fill="#FEFFF8"/>
<path d="M5.93111 16.2578L2.36523 18.7125" stroke="black" stroke-width="0.462166" stroke-miterlimit="10" stroke-linecap="round"/>
<path d="M6.68803 17.3574L3.52344 19.5354" stroke="black" stroke-width="0.462166" stroke-miterlimit="10" stroke-linecap="round"/>
<path d="M7.46995 18.4912L4.6582 20.427" stroke="black" stroke-width="0.462166" stroke-miterlimit="10" stroke-linecap="round"/>
<path d="M8.00104 12.4455L6.96739 14.0382C6.81103 14.2789 6.45956 14.2775 6.30597 14.0354L5.2917 12.4427C5.21006 12.314 5.21006 12.1494 5.2917 12.0193L6.30597 10.4266C6.45956 10.1845 6.81242 10.1831 6.96739 10.4239L8.00104 12.0165C8.08544 12.1466 8.08544 12.314 8.00104 12.4455Z" fill="#4848BD"/>
<path d="M20.6046 12.4455L19.5709 14.0382C19.4145 14.2789 19.0631 14.2775 18.9095 14.0354L17.8952 12.4427C17.8136 12.314 17.8136 12.1494 17.8952 12.0193L18.9095 10.4266C19.0631 10.1845 19.4159 10.1831 19.5709 10.4239L20.6046 12.0165C20.689 12.1466 20.689 12.314 20.6046 12.4455Z" fill="#4848BD"/>
</svg>
