<svg width="37" height="38" viewBox="0 0 37 38" fill="none" xmlns="http://www.w3.org/2000/svg">
<g opacity="0.6">
<path d="M37 2.99925V34.0008C37 35.4657 35.9494 36.6868 34.5578 36.9465C34.3774 36.9822 34.1911 37 34.0008 37H3.00123C1.34401 37 0 35.656 0 34.0008V2.99925C0 1.34401 1.34401 0 3.00123 0H34.0008C35.658 0 37 1.34401 37 2.99925Z" fill="#C4C1FF"/>
<path d="M4.50978 37.004V37H3.00123C1.34401 37 0 35.656 0 34.0008V25.344L9.02947 10.1792C9.8105 8.86496 11.7175 8.87884 12.4827 10.203L16.4116 17.0143L27.9368 37V37.004H4.50978Z" fill="#8383EA"/>
<path d="M34.5895 37.0043H4.50781V37.0003L16.4097 17.0146L18.281 13.8706C18.9569 12.7387 20.6003 12.7486 21.2584 13.8924L34.5558 36.9468L34.5895 37.0043Z" fill="#6060BC"/>
<path d="M28.5161 12.1675C30.8054 12.1675 32.6612 10.3117 32.6612 8.02247C32.6612 5.73324 30.8054 3.87744 28.5161 3.87744C26.2269 3.87744 24.3711 5.73324 24.3711 8.02247C24.3711 10.3117 26.2269 12.1675 28.5161 12.1675Z" fill="#6060BC"/>
</g>
</svg>
