<svg width="97" height="19" viewBox="0 0 97 19" fill="none" xmlns="http://www.w3.org/2000/svg">
<path d="M17.9558 17.9113H14.4129V11.175C14.4129 10.4313 14.3689 9.75323 13.6913 9.29393C13.2977 9.05342 12.8602 9.03169 12.7071 9.03169C12.4443 9.03169 11.6354 9.09737 11.1321 9.79717C10.7603 10.3221 10.7385 10.8906 10.7385 11.5247V17.9108H7.23904V11.3277C7.23904 11.0215 7.23904 10.7153 7.15162 10.4308C7.04199 9.97152 6.6706 9.20604 5.46755 9.20604C4.65812 9.20604 3.93658 9.66533 3.67433 10.4525C3.58692 10.6931 3.56518 10.9558 3.54297 11.4803V17.9104H0V6.10111H3.14936V7.52245C3.21504 7.43503 3.38987 7.12884 3.6526 6.88833C4.06794 6.45077 4.96479 5.86059 6.43008 5.86059C6.93284 5.86059 8.005 5.88233 8.98879 6.77918C9.31671 7.08537 9.51376 7.36983 9.75427 7.71949C10.0165 7.39157 10.3667 6.91006 11.1978 6.45077C11.985 5.99148 12.7945 5.83838 13.7131 5.83838C13.9318 5.83838 14.6534 5.83838 15.3537 6.10062C16.0095 6.34114 17.3439 7.06316 17.7815 8.89984C17.9129 9.44655 17.9563 9.99325 17.9563 11.1524V17.9104L17.9558 17.9113Z" fill="#FEFFF8"/>
<path d="M28.5835 6.10135H32.1482V17.9116H28.7144V16.9713C28.1459 17.3866 27.2051 18.1521 25.4554 18.1521C24.7116 18.1521 23.3559 17.999 21.9781 16.7307C21.3 16.1184 19.9004 14.5434 19.9004 12.0065C19.9004 11.3067 20.0318 9.71 21.1909 8.13557C22.2625 6.73596 23.8809 5.86084 25.6524 5.86084C27.1834 5.86084 28.102 6.49496 28.583 6.82337V6.10184L28.5835 6.10135ZM26.1122 14.6965C27.5992 14.6748 28.7805 13.4935 28.7805 12.0065C28.7588 10.5412 27.5775 9.33813 26.0904 9.33813C24.6034 9.33813 23.4221 10.5629 23.4221 12.0282C23.4221 12.728 23.7066 13.4061 24.2311 13.9093C24.7121 14.3903 25.4119 14.6965 26.1122 14.6965Z" fill="#FEFFF8"/>
<path d="M45.4016 17.9113H41.8587V11.2847C41.8369 10.5849 41.8147 9.84112 41.2023 9.3601C41.0053 9.207 40.6774 9.03217 40.1306 9.03217C39.7805 9.03217 38.6654 9.14132 38.2717 10.2569C38.1843 10.5631 38.1404 10.7602 38.1404 11.3286V17.9118H34.6191V6.05716H38.1843V7.12884C38.9933 6.23199 39.8901 5.88232 41.0932 5.88232C41.3554 5.88232 41.9243 5.90406 42.5585 6.12284C43.8489 6.5604 44.811 7.65381 45.1611 8.94427C45.4016 9.77544 45.4016 10.5627 45.4016 11.4373V17.9108V17.9113Z" fill="#FEFFF8"/>
<path d="M50.6286 13.2088C50.6504 13.2527 50.8474 13.6681 51.044 13.9303C51.6124 14.6958 52.5093 15.0894 53.4496 15.0894C53.9746 15.0894 54.5652 14.958 54.9806 14.6741C55.1337 14.5867 55.2211 14.521 55.4399 14.3022H59.092C58.8732 14.8054 58.567 15.5709 57.6706 16.4456C57.0582 17.0579 55.7243 18.1736 53.4496 18.1736C52.7058 18.1736 51.0218 18.0422 49.4691 16.774C48.0912 15.6366 47.2383 13.8434 47.2383 12.0279C47.2383 11.2842 47.3914 9.64407 48.6596 8.1131C49.8187 6.71349 51.5902 5.88232 53.4056 5.88232C54.1054 5.88232 55.8112 6.03542 57.3422 7.34762C58.6761 8.46324 59.529 10.2125 59.529 11.984C59.529 12.3993 59.4851 12.7934 59.4416 13.2088H50.6277H50.6286ZM56.0745 10.6279C55.79 10.1029 55.1119 9.0312 53.4279 9.0312C52.7937 9.0312 52.247 9.20603 51.7221 9.57791C51.4598 9.73101 51.241 9.97152 51.1971 10.0372C51.0222 10.212 50.9126 10.4091 50.8035 10.6279H56.0745Z" fill="#FEFFF8"/>
<path d="M77.4871 6.10107V17.9113H73.9219V6.10107H77.4871Z" fill="#FEFFF8"/>
<path d="M95.8816 6.10107V17.9113H92.3164V6.10107H95.8816Z" fill="#FEFFF8"/>
<path d="M75.7052 4.94161C77.0698 4.94161 78.176 3.83539 78.176 2.47081C78.176 1.10622 77.0698 0 75.7052 0C74.3406 0 73.2344 1.10622 73.2344 2.47081C73.2344 3.83539 74.3406 4.94161 75.7052 4.94161Z" fill="#FEFFF8"/>
<path d="M94.0997 4.94161C95.4643 4.94161 96.5705 3.83539 96.5705 2.47081C96.5705 1.10622 95.4643 0 94.0997 0C92.7351 0 91.6289 1.10622 91.6289 2.47081C91.6289 3.83539 92.7351 4.94161 94.0997 4.94161Z" fill="#FEFFF8"/>
<path d="M73.0562 6.10109H69.263C68.3816 7.92908 67.2795 8.7728 64.9314 8.73803V2.4707H61.4102V17.9113H64.9531V12.8374L67.9933 17.9113H72.3892L68.3121 11.6165C70.6361 10.707 72.6061 8.86167 73.0562 6.10109Z" fill="#FEFFF8"/>
<path d="M91.4527 6.10109H87.6595C86.7781 7.92908 85.676 8.7728 83.3279 8.73803V2.4707H79.8066V17.9113H83.3496V12.8374L86.3898 17.9113H90.7857L86.7086 11.6165C89.0326 10.707 91.0025 8.86167 91.4527 6.10109Z" fill="#FEFFF8"/>
</svg>
