<svg width="123" height="29" viewBox="0 0 123 29" fill="none" xmlns="http://www.w3.org/2000/svg">
<path d="M47.3239 21.7189H43.9392V15.2834C43.9392 14.5729 43.8972 13.9251 43.2498 13.4863C42.8738 13.2565 42.4558 13.2358 42.3095 13.2358C42.0585 13.2358 41.2857 13.2985 40.8049 13.9671C40.4497 14.4686 40.4289 15.0117 40.4289 15.6175V21.7184H37.0857V15.4292C37.0857 15.1367 37.0857 14.8442 37.0022 14.5724C36.8974 14.1336 36.5426 13.4023 35.3933 13.4023C34.62 13.4023 33.9307 13.8411 33.6802 14.5932C33.5967 14.8229 33.5759 15.0739 33.5547 15.575V21.7179H30.1699V10.4361H33.1786V11.7939C33.2414 11.7104 33.4084 11.4179 33.6594 11.1881C34.0562 10.7701 34.913 10.2063 36.3129 10.2063C36.7932 10.2063 37.8174 10.227 38.7573 11.0838C39.0706 11.3764 39.2588 11.6481 39.4886 11.9822C39.7391 11.6689 40.0736 11.2089 40.8677 10.7701C41.6198 10.3313 42.393 10.1851 43.2706 10.1851C43.4796 10.1851 44.1689 10.1851 44.8379 10.4356C45.4645 10.6654 46.7393 11.3551 47.1573 13.1098C47.2828 13.6321 47.3244 14.1544 47.3244 15.2617V21.7179L47.3239 21.7189Z" fill="black"/>
<path d="M57.4779 10.4363H60.8834V21.7191H57.603V20.8208C57.0599 21.2176 56.1611 21.9489 54.4895 21.9489C53.779 21.9489 52.4839 21.8026 51.1675 20.591C50.5197 20.006 49.1826 18.5014 49.1826 16.0777C49.1826 15.4092 49.3081 13.8838 50.4155 12.3797C51.4393 11.0426 52.9854 10.2065 54.6778 10.2065C56.1404 10.2065 57.0179 10.8123 57.4775 11.1261V10.4368L57.4779 10.4363ZM55.117 18.6477C56.5376 18.6269 57.6662 17.4983 57.6662 16.0777C57.6454 14.6779 56.5169 13.5285 55.0962 13.5285C53.6756 13.5285 52.5471 14.6986 52.5471 16.0985C52.5471 16.767 52.8188 17.4148 53.3199 17.8956C53.7794 18.3551 54.448 18.6477 55.117 18.6477Z" fill="black"/>
<path d="M73.5451 21.7189H70.1604V15.3881C70.1396 14.7196 70.1184 14.0091 69.5333 13.5495C69.3451 13.4033 69.0318 13.2362 68.5095 13.2362C68.175 13.2362 67.1097 13.3405 66.7336 14.4063C66.6501 14.6988 66.6081 14.8871 66.6081 15.4301V21.7193H63.2441V10.3941H66.6501V11.4179C67.4229 10.5611 68.2797 10.2271 69.4291 10.2271C69.6796 10.2271 70.2231 10.2478 70.8289 10.4568C72.0617 10.8748 72.9808 11.9194 73.3153 13.1523C73.5451 13.9463 73.5451 14.6984 73.5451 15.5339V21.7184V21.7189Z" fill="black"/>
<path d="M78.5378 17.2263C78.5585 17.2683 78.7468 17.6651 78.9346 17.9156C79.4776 18.6469 80.3344 19.023 81.2328 19.023C81.7343 19.023 82.2986 18.8975 82.6954 18.6262C82.8416 18.5427 82.9251 18.4799 83.1341 18.2709H86.6232C86.4142 18.7517 86.1216 19.483 85.2653 20.3186C84.6803 20.9036 83.4059 21.9694 81.2328 21.9694C80.5222 21.9694 78.9134 21.8439 77.43 20.6323C76.1136 19.5457 75.2988 17.8326 75.2988 16.0982C75.2988 15.3877 75.4451 13.8208 76.6567 12.3582C77.764 11.0211 79.4564 10.2271 81.1908 10.2271C81.8593 10.2271 83.4889 10.3733 84.9516 11.6269C86.2259 12.6927 87.0407 14.3639 87.0407 16.0562C87.0407 16.453 86.9987 16.8295 86.9572 17.2263H78.5369H78.5378ZM83.7404 14.7607C83.4686 14.2591 82.8209 13.2353 81.212 13.2353C80.6062 13.2353 80.0839 13.4023 79.5824 13.7576C79.3318 13.9039 79.1228 14.1336 79.0808 14.1964C78.9138 14.3634 78.8091 14.5517 78.7048 14.7607H83.7404Z" fill="black"/>
<path d="M104.197 10.4355V21.7184H100.792V10.4355H104.197Z" fill="black"/>
<path d="M121.77 10.4355V21.7184H118.364V10.4355H121.77Z" fill="black"/>
<path d="M102.494 9.32787C103.798 9.32787 104.855 8.27105 104.855 6.9674C104.855 5.66375 103.798 4.60693 102.494 4.60693C101.191 4.60693 100.134 5.66375 100.134 6.9674C100.134 8.27105 101.191 9.32787 102.494 9.32787Z" fill="black"/>
<path d="M120.067 9.32787C121.371 9.32787 122.428 8.27105 122.428 6.9674C122.428 5.66375 121.371 4.60693 120.067 4.60693C118.764 4.60693 117.707 5.66375 117.707 6.9674C117.707 8.27105 118.764 9.32787 120.067 9.32787Z" fill="black"/>
<path d="M99.9643 10.436H96.3406C95.4985 12.1824 94.4456 12.9884 92.2024 12.9552V6.96777H88.8384V21.7188H92.2231V16.8715L95.1276 21.7188H99.3271L95.4321 15.7051C97.6523 14.8363 99.5343 13.0733 99.9643 10.436Z" fill="black"/>
<path d="M117.538 10.436H113.914C113.072 12.1824 112.019 12.9884 109.776 12.9552V6.96777H106.412V21.7188H109.796V16.8715L112.701 21.7188H116.9L113.005 15.7051C115.226 14.8363 117.108 13.0733 117.538 10.436Z" fill="black"/>
<path d="M13.4281 28.377C19.8742 28.377 25.0999 23.6463 25.0999 17.8108C25.0999 11.9753 19.8742 7.24463 13.4281 7.24463C6.98197 7.24463 1.75635 11.9753 1.75635 17.8108C1.75635 23.6463 6.98197 28.377 13.4281 28.377Z" fill="#EF7D70"/>
<path d="M10.7175 6.9662C9.87204 4.50177 6.29094 -0.168317 4.10603 0.580281C1.9225 1.33026 1.96263 7.21527 2.80809 9.67969L10.7161 6.9662H10.7175Z" fill="#AAAAF9"/>
<path d="M3.78779 7.90709C3.64388 6.97307 3.57469 5.7969 3.67431 4.59998C3.74627 3.74345 3.89849 3.0156 4.11573 2.49394C4.30807 2.03316 4.49211 1.88371 4.54607 1.86434C4.56268 1.85881 4.58619 1.85742 4.60279 1.85742C4.93765 1.85742 5.85368 2.26009 7.16269 3.76559C7.86839 4.57784 8.44542 5.4316 8.85501 6.16636L3.7864 7.90571L3.78779 7.90709Z" fill="#EF7D70"/>
<path d="M16.1475 6.9662C16.9929 4.50177 20.574 -0.168317 22.7589 0.580281C24.9438 1.32888 24.9023 7.21527 24.0569 9.67969L16.1488 6.9662H16.1475Z" fill="#AAAAF9"/>
<path d="M23.077 7.90709C23.2209 6.97307 23.2901 5.7969 23.1905 4.59998C23.1185 3.74345 22.9663 3.0156 22.749 2.49394C22.5567 2.03316 22.3727 1.88371 22.3187 1.86434C22.3021 1.85881 22.2786 1.85742 22.262 1.85742C21.9271 1.85742 21.0111 2.26009 19.7021 3.76559C18.9964 4.57784 18.4193 5.4316 18.0098 6.16636L23.0784 7.90571L23.077 7.90709Z" fill="#EF7D70"/>
<path d="M13.4283 26.6969C20.5675 26.6969 26.3551 21.4576 26.3551 14.9947C26.3551 8.53174 20.5675 3.29248 13.4283 3.29248C6.28898 3.29248 0.501465 8.53174 0.501465 14.9947C0.501465 21.4576 6.28898 26.6969 13.4283 26.6969Z" fill="#BBBBFF"/>
<path d="M26.3536 14.9948C26.3536 21.4582 20.5668 26.697 13.4268 26.697C6.28675 26.697 0.5 21.4582 0.5 14.9948C0.5 14.6904 0.512439 14.3887 0.537347 14.0898C1.04794 20.1298 6.62299 24.8871 13.4254 24.8871C20.2278 24.8871 25.8043 20.1298 26.3135 14.0898C26.3384 14.3887 26.3508 14.6904 26.3508 14.9948H26.3536Z" fill="#AAAAF9"/>
<path d="M7.14707 15.8098C8.8528 15.8098 10.2356 14.427 10.2356 12.7213C10.2356 11.0156 8.8528 9.63281 7.14707 9.63281C5.44135 9.63281 4.05859 11.0156 4.05859 12.7213C4.05859 14.427 5.44135 15.8098 7.14707 15.8098Z" fill="#EF7D70"/>
<path d="M7.14749 15.0611C5.85786 15.0611 4.80762 14.0109 4.80762 12.7212C4.80762 11.4316 5.85786 10.3813 7.14749 10.3813C8.43713 10.3813 9.48738 11.4316 9.48738 12.7212C9.48738 14.0109 8.43713 15.0611 7.14749 15.0611Z" fill="#FEFFF8"/>
<path d="M17.1339 17.4775C17.1339 18.5015 16.3036 19.3304 15.281 19.3304C14.2585 19.3304 13.4282 18.5001 13.4282 17.4775" stroke="black" stroke-width="0.543806" stroke-linecap="round" stroke-linejoin="round"/>
<path d="M13.4283 17.4775C13.4283 18.5015 12.598 19.3304 11.5755 19.3304C10.5529 19.3304 9.72266 18.5001 9.72266 17.4775" stroke="black" stroke-width="0.543806" stroke-linecap="round" stroke-linejoin="round"/>
<path d="M13.4282 17.4768V16.3726" stroke="black" stroke-width="0.543806" stroke-linecap="round" stroke-linejoin="round"/>
<path d="M14.6265 15.8101C14.9863 15.8101 15.1869 16.2252 14.9641 16.5075C14.639 16.9212 14.073 17.2823 13.4282 17.2823C12.7834 17.2823 12.2174 16.9212 11.8923 16.5075C11.6695 16.2238 11.8701 15.8101 12.2299 15.8101H14.6279H14.6265Z" fill="black"/>
<path d="M20.4243 16.7578L23.9902 19.2125" stroke="black" stroke-width="0.462166" stroke-miterlimit="10" stroke-linecap="round"/>
<path d="M19.666 17.8574L22.8306 20.0354" stroke="black" stroke-width="0.462166" stroke-miterlimit="10" stroke-linecap="round"/>
<path d="M18.8872 18.9912L21.6989 20.927" stroke="black" stroke-width="0.462166" stroke-miterlimit="10" stroke-linecap="round"/>
<path d="M19.7076 15.8098C21.4133 15.8098 22.7961 14.427 22.7961 12.7213C22.7961 11.0156 21.4133 9.63281 19.7076 9.63281C18.0019 9.63281 16.6191 11.0156 16.6191 12.7213C16.6191 14.427 18.0019 15.8098 19.7076 15.8098Z" fill="#EF7D70"/>
<path d="M19.7076 15.0611C18.4179 15.0611 17.3677 14.0109 17.3677 12.7212C17.3677 11.4316 18.4179 10.3813 19.7076 10.3813C20.9972 10.3813 22.0475 11.4316 22.0475 12.7212C22.0475 14.0109 20.9972 15.0611 19.7076 15.0611Z" fill="#FEFFF8"/>
<path d="M6.43062 16.7578L2.86475 19.2125" stroke="black" stroke-width="0.462166" stroke-miterlimit="10" stroke-linecap="round"/>
<path d="M7.189 17.8574L4.02441 20.0354" stroke="black" stroke-width="0.462166" stroke-miterlimit="10" stroke-linecap="round"/>
<path d="M7.96946 18.9912L5.15771 20.927" stroke="black" stroke-width="0.462166" stroke-miterlimit="10" stroke-linecap="round"/>
<path d="M8.50104 12.9455L7.46739 14.5382C7.31103 14.7789 6.95956 14.7775 6.80597 14.5354L5.7917 12.9427C5.71006 12.814 5.71006 12.6494 5.7917 12.5193L6.80597 10.9266C6.95956 10.6845 7.31242 10.6831 7.46739 10.9239L8.50104 12.5165C8.58544 12.6466 8.58544 12.814 8.50104 12.9455Z" fill="#4848BD"/>
<path d="M21.1036 12.9455L20.0699 14.5382C19.9136 14.7789 19.5621 14.7775 19.4085 14.5354L18.3942 12.9427C18.3126 12.814 18.3126 12.6494 18.3942 12.5193L19.4085 10.9266C19.5621 10.6845 19.915 10.6831 20.0699 10.9239L21.1036 12.5165C21.188 12.6466 21.188 12.814 21.1036 12.9455Z" fill="#4848BD"/>
</svg>
